<?xml version="1.0" encoding="utf-8"?>
<!-- Generator: Adobe Illustrator 16.0.0, SVG Export Plug-In . SVG Version: 6.00 Build 0)  -->
<!DOCTYPE svg PUBLIC "-//W3C//DTD SVG 1.1//EN" "http://www.w3.org/Graphics/SVG/1.1/DTD/svg11.dtd">
<svg version="1.1" id="Layer_1" xmlns="http://www.w3.org/2000/svg" xmlns:xlink="http://www.w3.org/1999/xlink" x="0px" y="0px"
	 width="75px" height="75px" viewBox="0 0 75 75" enable-background="new 0 0 75 75" xml:space="preserve">
<rect fill="#017BB6" width="75.361" height="75.359"/>
<path fill="#FFFFFF" d="M12.295,28.836h10.633v34.158H12.295V28.836z M17.615,11.855c3.399,0,6.156,2.76,6.156,6.154
	c0,3.397-2.756,6.157-6.156,6.157c-3.412,0-6.163-2.76-6.163-6.157C11.453,14.615,14.204,11.855,17.615,11.855"/>
<path fill="#FFFFFF" d="M29.594,28.836h10.183v4.668h0.145c1.416-2.688,4.884-5.518,10.052-5.518
	c10.748,0,12.736,7.071,12.736,16.271v18.736H52.096V46.387c0-3.965-0.078-9.061-5.521-9.061c-5.528,0-6.371,4.315-6.371,8.768v16.9
	H29.594V28.836z"/>
</svg>
